<svg width="34" height="35" viewBox="0 0 34 35" fill="none" xmlns="http://www.w3.org/2000/svg">
<rect y="0.176758" width="34" height="34.7256" rx="10" fill="#FD3C4A"/>
<path d="M21.5 17.5391C23.9853 17.5391 26 15.5243 26 13.0391C26 10.5538 23.9853 8.53906 21.5 8.53906C19.0147 8.53906 17 10.5538 17 13.0391C17 13.7589 17.169 14.4393 17.4696 15.0427C17.5494 15.203 17.576 15.3863 17.5297 15.5593L17.2617 16.5611C17.1453 16.9959 17.5432 17.3937 17.978 17.2774L18.9797 17.0094C19.1528 16.9631 19.336 16.9896 19.4964 17.0695C20.0998 17.37 20.7801 17.5391 21.5 17.5391Z" fill="white"/>
<path d="M13.4338 13.3232L14.0179 14.3699C14.5451 15.3144 14.3335 16.5535 13.5032 17.3837C13.5032 17.3837 13.5032 17.3837 13.5032 17.3837C13.5031 17.3838 12.4963 18.3908 14.3221 20.2166C16.1472 22.0417 17.1542 21.0362 17.155 21.0354C17.155 21.0354 17.155 21.0354 17.155 21.0354C17.9852 20.2052 19.2243 19.9936 20.1688 20.5207L21.2154 21.1048C22.6417 21.9008 22.8101 23.901 21.5565 25.1546C20.8032 25.9079 19.8804 26.4941 18.8602 26.5328C17.1429 26.5979 14.2264 26.1633 11.3009 23.2377C8.37541 20.3122 7.94079 17.3958 8.0059 15.6785C8.04457 14.6583 8.63072 13.7355 9.38403 12.9822C10.6377 11.7285 12.6379 11.897 13.4338 13.3232Z" fill="white"/>
</svg>
