<svg width="34" height="36" viewBox="0 0 34 36" fill="none" xmlns="http://www.w3.org/2000/svg">
<rect y="0.451172" width="34" height="34.7256" rx="10" fill="#7F3DFF"/>
<path d="M8 17.9251C8 12.8929 12.0294 8.81348 17 8.81348C21.9705 8.81348 26 12.8929 26 17.9251L26 22.6442C26.0002 23.3794 26.0004 23.8836 25.8712 24.3263C25.6185 25.1919 25.0141 25.9079 24.209 26.2956C23.7973 26.4939 23.3054 26.5723 22.588 26.6867L22.471 26.7054C22.2159 26.7462 21.9979 26.7811 21.817 26.799C21.6289 26.8177 21.4369 26.8235 21.2406 26.7844C20.5948 26.6556 20.0622 26.1948 19.8358 25.569C19.767 25.3788 19.7427 25.186 19.7316 24.9949C19.7209 24.8113 19.7209 24.5878 19.7209 24.3264L19.7208 20.5712C19.7204 20.1883 19.72 19.8588 19.8076 19.5766C20.008 18.931 20.5314 18.4413 21.1829 18.2898C21.4677 18.2235 21.7921 18.2499 22.1692 18.2805L22.2531 18.2873L22.3519 18.2951C23.0573 18.3513 23.5398 18.3897 23.9495 18.5431C24.2374 18.6508 24.5044 18.7993 24.7441 18.9814V17.9251C24.7441 13.5951 21.277 10.0849 17 10.0849C12.723 10.0849 9.25581 13.5951 9.25581 17.9251V18.9814C9.49559 18.7993 9.76259 18.6508 10.0505 18.5431C10.4601 18.3897 10.9427 18.3513 11.648 18.2951L11.7469 18.2873L11.8308 18.2805C12.2078 18.2499 12.5322 18.2235 12.817 18.2898C13.4685 18.4413 13.9919 18.931 14.1924 19.5766C14.28 19.8588 14.2796 20.1883 14.2791 20.5712L14.2791 24.3264C14.2791 24.5878 14.2791 24.8112 14.2684 24.9949C14.2573 25.186 14.233 25.3788 14.1642 25.569C13.9378 26.1948 13.4052 26.6556 12.7593 26.7844C12.563 26.8235 12.3711 26.8177 12.1829 26.799C12.002 26.7811 11.784 26.7462 11.5289 26.7054L11.412 26.6868C10.6946 26.5723 10.2026 26.4939 9.79092 26.2956C8.98581 25.9079 8.38149 25.1919 8.12877 24.3263C8.0222 23.9613 8.00363 23.5544 8.00054 23.0107L8 22.8358V17.9251Z" fill="white"/>
</svg>
