<svg width="31" height="30" viewBox="0 0 31 30" fill="none" xmlns="http://www.w3.org/2000/svg">
<circle cx="15.8201" cy="15" r="14" fill="#442CF5" stroke="#F5F7FF" stroke-width="2"/>
<path fill-rule="evenodd" clip-rule="evenodd" d="M9.32007 12.6225C9.32007 11.7277 9.92905 10.9478 10.7971 10.7307L11.9201 10.45L12.8341 9.07889C13.0752 8.71723 13.4811 8.5 13.9158 8.5H17.7243C18.159 8.5 18.5649 8.71723 18.806 9.07889L19.7201 10.45L20.843 10.7307C21.7111 10.9478 22.3201 11.7277 22.3201 12.6225V19.55C22.3201 20.627 21.4471 21.5 20.3701 21.5H11.2701C10.1931 21.5 9.32007 20.627 9.32007 19.55V12.6225Z" fill="#E9E9FF"/>
<path fill-rule="evenodd" clip-rule="evenodd" d="M19.72 13.7004C20.079 13.7004 20.37 13.4094 20.37 13.0504C20.37 12.6914 20.079 12.4004 19.72 12.4004C19.361 12.4004 19.07 12.6914 19.07 13.0504C19.07 13.4094 19.361 13.7004 19.72 13.7004ZM15.82 18.2504C17.2559 18.2504 18.42 17.0863 18.42 15.6504C18.42 14.2145 17.2559 13.0504 15.82 13.0504C14.384 13.0504 13.22 14.2145 13.22 15.6504C13.22 17.0863 14.384 18.2504 15.82 18.2504Z" fill="#4A44C6"/>
</svg>
