<svg width="34" height="36" viewBox="0 0 34 36" fill="none" xmlns="http://www.w3.org/2000/svg">
<rect y="0.725586" width="34" height="34.7256" rx="10" fill="#FFC93D"/>
<path fill-rule="evenodd" clip-rule="evenodd" d="M18.6852 8.75849C18.3343 8.61426 17.8896 8.61426 17 8.61426C16.1104 8.61426 15.6657 8.61426 15.3148 8.75849C14.847 8.95079 14.4753 9.31965 14.2816 9.78391C14.1931 9.99584 14.1585 10.2423 14.145 10.6018C14.1251 11.1302 13.852 11.6192 13.3907 11.8836C12.9293 12.1479 12.3661 12.138 11.8951 11.891C11.5746 11.7229 11.3422 11.6294 11.113 11.5994C10.611 11.5338 10.1033 11.6689 9.70162 11.9748C9.40034 12.2042 9.17795 12.5865 8.73317 13.351C8.28839 14.1156 8.066 14.4979 8.01643 14.8715C7.95034 15.3698 8.08638 15.8736 8.39462 16.2723C8.53532 16.4543 8.73305 16.6072 9.03993 16.7986C9.49108 17.0799 9.78136 17.5592 9.78133 18.088C9.7813 18.6167 9.49103 19.0959 9.03993 19.3772C8.73299 19.5686 8.53524 19.7215 8.39453 19.9035C8.08629 20.3022 7.95025 20.8061 8.01634 21.3043C8.06591 21.6779 8.2883 22.0602 8.73308 22.8248C9.17786 23.5893 9.40025 23.9716 9.70153 24.2011C10.1032 24.507 10.6109 24.642 11.1129 24.5764C11.3421 24.5464 11.5745 24.453 11.8949 24.2849C12.366 24.0378 12.9293 24.0279 13.3906 24.2923C13.852 24.5567 14.1251 25.0457 14.145 25.5741C14.1585 25.9336 14.1931 26.18 14.2816 26.392C14.4753 26.8562 14.847 27.2251 15.3148 27.4174C15.6657 27.5616 16.1104 27.5616 17 27.5616C17.8896 27.5616 18.3343 27.5616 18.6852 27.4174C19.153 27.2251 19.5247 26.8562 19.7184 26.392C19.8069 26.18 19.8415 25.9336 19.855 25.574C19.8749 25.0457 20.1479 24.5567 20.6093 24.2923C21.0706 24.0279 21.634 24.0377 22.105 24.2848C22.4254 24.4529 22.6578 24.5464 22.887 24.5763C23.389 24.6419 23.8967 24.5069 24.2984 24.201C24.5997 23.9716 24.822 23.5893 25.2668 22.8247C25.7116 22.0602 25.934 21.6779 25.9836 21.3042C26.0497 20.806 25.9136 20.3021 25.6054 19.9035C25.4647 19.7215 25.2669 19.5685 24.96 19.3771C24.5089 19.0958 24.2186 18.6166 24.2187 18.0879C24.2187 17.5592 24.5089 17.08 24.96 16.7988C25.267 16.6073 25.4648 16.4544 25.6055 16.2724C25.9137 15.8737 26.0497 15.3698 25.9837 14.8716C25.9341 14.4979 25.7117 14.1157 25.2669 13.3511C24.8221 12.5865 24.5998 12.2043 24.2985 11.9748C23.8968 11.6689 23.3891 11.5339 22.8871 11.5995C22.6579 11.6294 22.4255 11.7229 22.1051 11.891C21.634 12.1381 21.0707 12.148 20.6094 11.8836C20.148 11.6192 19.8749 11.1301 19.855 10.6018C19.8415 10.2423 19.8069 9.99583 19.7184 9.78391C19.5247 9.31965 19.153 8.95079 18.6852 8.75849ZM17 20.93C18.5816 20.93 19.8637 19.6576 19.8637 18.0879C19.8637 16.5183 18.5816 15.2458 17 15.2458C15.4184 15.2458 14.1363 16.5183 14.1363 18.0879C14.1363 19.6576 15.4184 20.93 17 20.93Z" fill="white"/>
</svg>
